<svg xmlns="http://www.w3.org/2000/svg" width="256" height="256"><path fill="#1976D2" fill-opacity=".016" fill-rule="evenodd" d="M0 128.004v128.004l128.25-.254 128.25-.254.254-127.75L257.008 0H0zm.485.496c0 70.4.119 99.053.265 63.672s.146-92.98 0-128S.485 58.1.485 128.5"/><path fill="#1976D2" fill-opacity=".211" fill-rule="evenodd" d="M82.549 83.113c-11.355 3.905-20.556 11.951-26.018 22.752-1.948 3.854-13.547 52.733-13.499 56.888.061 5.315 4.222 8.247 11.701 8.247 4.639 0 4.923-.16 6.113-3.451 2.298-6.356 10.205-10.757 16.491-9.179 3.564.894 7.51 5.394 7.856 8.959l.307 3.171 14.148.277 14.148.277 2.102-4.343c4.329-8.944 15.406-11.411 21.352-4.757 1.753 1.961 2.75 4.207 2.75 6.192 0 3.111.005 3.114 4.618 2.594 6.632-.748 9.154-3.691 11.446-13.361 1.027-4.333 1.883-8.891 1.902-10.129L158 145H80.349l-2.175-2.314c-2.83-3.013-2.766-6.71.335-19.186 4.501-18.113 5.24-18.496 35.67-18.498C138.79 105 140 105.261 140 110.571V113h12.465c14.812 0 14.678.11 15.284-12.5.462-9.601-1.319-13.774-7.353-17.234-3.824-2.192-4.525-2.233-37.896-2.216-31.625.016-34.416.16-39.951 2.063m108.951-.946c-3.287 1.818-6.59 5.144-8.275 8.333-1.73 3.273-6.413 21.811-5.369 21.25 3.01-1.617 12.57-5.809 16.508-7.238 2.676-.97 6.794-3.62 9.153-5.888 4.045-3.89 4.739-5.358 7.036-14.874l.664-2.75-8.859.03c-4.872.017-9.758.529-10.858 1.137m9.55 25.367c-1.897 1.34-6.3 3.384-9.783 4.544-8.066 2.684-14.079 7.402-16.33 12.813-.547 1.316-2.839 10.541-5.092 20.5-2.253 9.96-4.899 19.684-5.879 21.609-2.53 4.968-6.877 8.771-12.56 10.991l-4.906 1.915 14.5.025c16.756.029 20.101-.958 26.21-7.733 4.378-4.857 4.914-6.567 12.285-39.198 3.043-13.475 5.782-25.287 6.087-26.25.738-2.335-.39-2.14-4.532.784M70.418 161.947c-1.144.475-3.282 2.291-4.75 4.035-5.437 6.462-2.18 14.018 6.043 14.018 8.064 0 13.501-10.653 8.039-15.752-2.718-2.537-6.509-3.472-9.332-2.301m53.96.467c-4.18 1.85-6.378 5.23-6.378 9.809 0 11.201 16.839 10.028 18.637-1.298 1.054-6.639-5.775-11.38-12.259-8.511"/><path fill="#1976D2" fill-opacity=".768" fill-rule="evenodd" d="M84.949 82.826C70.992 86.47 58.75 98.12 54.848 111.472c-3.493 11.955-11.765 51.009-11.244 53.085.948 3.779 4.139 5.446 10.369 5.417 5.45-.025 5.552-.081 7.339-3.956 2.369-5.142 7.08-8.018 13.133-8.018 3.876 0 5.228.519 7.644 2.935 1.614 1.614 3.211 4.314 3.548 6L86.25 170h27.585l1.833-3.737c3.566-7.274 12.39-10.353 19.352-6.753 3.277 1.695 4.892 4.158 5.205 7.937.191 2.311.621 2.553 4.539 2.553 6.407 0 8.512-2.634 11.106-13.9 1.172-5.088 2.13-9.442 2.13-9.676s-16.988-.426-37.75-.428c-35.332-.003-37.95-.125-40.868-1.905-1.714-1.045-3.407-3.053-3.76-4.461-.589-2.345 2.063-16.835 4.429-24.202 1.306-4.066 6.738-9.22 11.007-10.445 1.886-.541 12.669-.983 23.963-.983 22.405 0 24.979.573 24.979 5.557V112h25.774l1.226-6.501c2.324-12.313-1.229-20.753-9.818-23.326-2.647-.793-13.91-1.154-34.798-1.115-25.788.048-31.965.34-37.435 1.768m106.231-.144c-5.255 2.589-8.004 7.172-10.715 17.857-1.364 5.378-2.348 9.911-2.186 10.073s2.928-1.035 6.148-2.659 6.489-2.953 7.264-2.953c2.442 0 7.669-3.086 11.591-6.845 2.703-2.589 4.344-5.442 5.75-9.995 1.083-3.504 1.968-6.548 1.968-6.765s-3.713-.385-8.25-.372c-5.579.015-9.325.552-11.57 1.659M201 108c-1.375 1.075-5.281 2.891-8.681 4.036-6.703 2.257-13.365 6.578-15.747 10.214-.826 1.26-3.572 11.281-6.103 22.27-5.82 25.268-8.069 29.364-18.651 33.961-3.133 1.36-2.65 1.443 8.682 1.474 13.082.037 17.47-.787 22.594-4.239 7.205-4.856 7.985-6.929 15.871-42.216 2.827-12.65 5.39-24.013 5.696-25.25.679-2.75-.373-2.822-3.661-.25M67.707 164.016c-1.409 1.108-3.058 3.518-3.665 5.356-3.654 11.073 11.056 15.074 16.527 4.494 4.301-8.317-5.382-15.734-12.862-9.85M121.4 165.4c-4.222 4.222-4.558 8.533-.945 12.145 5.62 5.621 15.473.674 15.523-7.795.048-8.102-8.327-10.601-14.578-4.35"/><path fill="#1976D2" fill-opacity=".956" fill-rule="evenodd" d="M88.338 82.448c-13.363 2.485-24.937 11.173-30.343 22.777-2.99 6.417-14.001 51.541-13.977 57.275.022 5.233 3.134 7.5 10.295 7.5 3.955 0 4.576-.317 5.638-2.883C62.182 161.731 68.828 157 74.164 157 79.853 157 86 162.687 86 167.95c0 1.968.554 2.05 13.902 2.05h13.902l.968-2.75c2.17-6.166 10.814-11.324 16.56-9.881 4.121 1.034 8.539 5.427 9.245 9.191.574 3.06.996 3.44 3.812 3.44 3.455 0 7.038-2.06 8.574-4.93.538-1.006 1.842-5.708 2.899-10.449l1.921-8.621H80.846l-2.923-2.923c-3.476-3.476-3.545-4.822-.867-17.091 2.552-11.692 4.262-15.364 8.754-18.792l3.529-2.694 23.46-.302c23.244-.3 23.483-.281 25.888 1.978 1.442 1.355 2.236 3.011 1.956 4.081-.438 1.676.411 1.782 12.153 1.522l12.625-.279.792-3.5c1.632-7.217 1.143-15.688-1.117-19.344-4.204-6.802-5.984-7.133-39.596-7.348-21.471-.138-32.036.186-37.162 1.14M194 82.02c-5.864 1.367-10.377 7.477-12.874 17.43-1.169 4.663-2.126 8.919-2.126 9.458 0 .54 2.363-.056 5.25-1.325s7.405-3.087 10.039-4.042c8.688-3.15 13.443-9.012 15.243-18.791l.691-3.75-6.362.102c-3.498.057-7.936.47-9.861.918m8.3 25.621c-1.21.845-5.485 2.869-9.5 4.498-9.244 3.749-14.086 7.085-16.189 11.154-.912 1.764-3.64 11.83-6.063 22.369s-5.074 20.439-5.891 22c-1.815 3.466-7.165 8.602-10.976 10.536-2.56 1.299-1.646 1.397 9.888 1.066 13.88-.399 17.564-1.529 22.567-6.922 4.355-4.696 5.384-7.79 11.259-33.842 3.101-13.75 6.033-26.687 6.516-28.75s.813-3.726.734-3.698c-.08.029-1.135.744-2.345 1.589M70.388 162.98c-5.508 2.226-8.358 10.98-4.638 14.247 5.961 5.234 15.25.762 15.25-7.343 0-5.861-5.055-9.149-10.612-6.904m52.965.946c-6.526 3.98-6.29 14.088.358 15.359 8.965 1.714 15.908-8.757 9.834-14.83-2.949-2.95-5.965-3.106-10.192-.529"/></svg>